<svg xmlns="http://www.w3.org/2000/svg" xmlns:xlink="http://www.w3.org/1999/xlink" version="1.1" width="256" height="256" viewBox="0 0 256 256" xml:space="preserve">

<defs>
</defs>
<g style="stroke: none; stroke-width: 0; stroke-dasharray: none; stroke-linecap: butt; stroke-linejoin: miter; stroke-miterlimit: 10; fill: none; fill-rule: nonzero; opacity: 1;" transform="translate(1.4065934065934016 1.4065934065934016) scale(2.81 2.81)" >
	<path d="M 86.012 40.625 H 80.68 v -2.188 c 0 -2.199 -1.789 -3.989 -3.988 -3.989 h -34.15 V 30.17 h 5.267 c 5.389 0 9.773 -4.384 9.773 -9.773 c 0 -5.389 -4.385 -9.773 -9.773 -9.773 H 17.535 c -5.389 0 -9.773 4.384 -9.773 9.773 c 0 5.389 4.384 9.773 9.773 9.773 h 4.688 v 4.279 H 9.783 c -2.199 0 -3.989 1.79 -3.989 3.989 v 0.386 H 3.989 C 1.79 38.824 0 40.613 0 42.813 v 4.556 c 0 2.199 1.79 3.988 3.989 3.988 h 1.806 v 0.386 c 0 2.199 1.79 3.989 3.989 3.989 h 6.769 L 9.281 74.308 c -0.448 1.144 -0.302 2.433 0.391 3.448 c 0.692 1.015 1.839 1.62 3.068 1.62 h 8 c 3.305 0 6.327 -1.942 7.701 -4.949 l 4.8 -10.511 c 0.687 0.071 1.362 0.118 2.011 0.118 c 5.743 0 9.976 -2.79 12.62 -8.303 h 28.82 c 2.199 0 3.988 -1.79 3.988 -3.989 v -2.187 h 5.332 c 2.199 0 3.988 -1.79 3.988 -3.989 v -0.953 C 90 42.415 88.211 40.625 86.012 40.625 z M 9.762 20.397 c 0 -4.286 3.487 -7.773 7.773 -7.773 h 30.272 c 4.286 0 7.773 3.487 7.773 7.773 s -3.487 7.773 -7.773 7.773 h -6.267 H 23.223 h -5.688 C 13.249 28.17 9.762 24.684 9.762 20.397 z M 24.223 30.17 h 16.318 v 4.279 H 24.223 V 30.17 z M 26.621 73.596 c -1.049 2.297 -3.357 3.78 -5.881 3.78 h -8 c -0.576 0 -1.092 -0.272 -1.416 -0.748 c -0.325 -0.476 -0.391 -1.056 -0.181 -1.592 l 7.556 -19.305 h 16.08 L 26.621 73.596 z M 34.119 61.992 l 2.482 -5.435 l 2.602 2.982 c 0.363 0.416 0.995 0.46 1.411 0.097 c 0.417 -0.363 0.459 -0.995 0.096 -1.411 l -2.176 -2.494 h 7.092 C 43.139 60.283 39.357 62.349 34.119 61.992 z M 88 45.566 c 0 1.097 -0.892 1.989 -1.988 1.989 H 79.68 c -0.553 0 -1 0.447 -1 1 v 3.187 c 0 1.097 -0.892 1.989 -1.988 1.989 H 47.258 c -0.001 0 -0.001 0 -0.002 0 H 17.991 c 0 0 -0.001 0 -0.001 0 H 9.783 c -1.097 0 -1.989 -0.893 -1.989 -1.989 v -1.386 c 0 -0.553 -0.448 -1 -1 -1 H 3.989 C 2.892 49.356 2 48.465 2 47.368 v -4.556 c 0 -1.097 0.892 -1.989 1.989 -1.989 h 2.806 c 0.552 0 1 -0.448 1 -1 v -1.386 c 0 -1.097 0.892 -1.989 1.989 -1.989 h 13.44 h 18.318 h 35.15 c 1.097 0 1.988 0.892 1.988 1.989 v 3.188 c 0 0.552 0.447 1 1 1 h 6.332 c 1.097 0 1.988 0.892 1.988 1.988 V 45.566 z" style="stroke: none; stroke-width: 1; stroke-dasharray: none; stroke-linecap: butt; stroke-linejoin: miter; stroke-miterlimit: 10; fill: rgb(0,0,0); fill-rule: nonzero; opacity: 1;" transform=" matrix(1 0 0 1 0 0) " stroke-linecap="round" />
	<path d="M 75.878 46 H 23.223 c -0.552 0 -1 -0.448 -1 -1 s 0.448 -1 1 -1 h 52.655 c 0.553 0 1 0.448 1 1 S 76.431 46 75.878 46 z" style="stroke: none; stroke-width: 1; stroke-dasharray: none; stroke-linecap: butt; stroke-linejoin: miter; stroke-miterlimit: 10; fill: rgb(0,0,0); fill-rule: nonzero; opacity: 1;" transform=" matrix(1 0 0 1 0 0) " stroke-linecap="round" />
</g>
</svg>